<?xml version="1.0" encoding="utf-8"?><svg width="362" height="331" viewBox="0 0 362 331" xmlns="http://www.w3.org/2000/svg" xmlns:xlink="http://www.w3.org/1999/xlink"><svg width="68" height="68" viewBox="-4 -4 68 68" id="btn-slick-arrow" x="131" xmlns="http://www.w3.org/2000/svg"><g fill="none" fill-rule="evenodd"><circle cx="30" cy="30" r="29" stroke="#C2C2C2" stroke-width="2"/><path stroke="#FFF" stroke-linecap="round" stroke-width="2.5" d="M32.5 39.692L23.308 30.5l9.192-9.192"/></g></svg><svg width="23" height="23" viewBox="-4 -4 23 23" id="btn_banner_close" x="331" y="188" xmlns="http://www.w3.org/2000/svg"><g fill="#FFF" fill-rule="evenodd" transform="translate(1 1)"><rect width="1.147" height="16.824" x="5.78" y="-2.058" rx=".574" transform="rotate(-45 6.354 6.354)"/><rect width="1.147" height="16.824" x="5.78" y="-2.058" rx=".574" transform="rotate(45 6.354 6.354)"/></g></svg><svg width="14" height="18" viewBox="-4 -4 14 18" id="btn_banner_go" x="348" y="211" xmlns="http://www.w3.org/2000/svg"><path fill="none" stroke="#50D07A" stroke-linecap="round" stroke-linejoin="round" stroke-width="1.3" d="M1 .757L5.2 5 1 9.243"/></svg><svg width="116" height="34" viewBox="-4 -4 116 34" id="btn_cs_logo" y="31" xmlns="http://www.w3.org/2000/svg"><g fill="none" fill-rule="evenodd"><path stroke="#EDEDED" d="M13 .5C6.096.5.5 6.096.5 13S6.096 25.5 13 25.5h82c6.904 0 12.5-5.596 12.5-12.5S101.904.5 95 .5H13z"/><path d="M82.514 14.043c-.005-.066-.015-.131-.025-.197-.087-.623-.419-1.069-1.013-1.281-.608-.218-1.185-.126-1.675.313-.494.444-.604 1.018-.524 1.647.162 1.288 1.503 1.763 2.455 1.224.593-.336.782-.884.782-1.524 0-.06.004-.121 0-.182zm-.029-2.404V8.132h1.738v9.253h-1.582v-.739c-.05.037-.078.05-.096.071-.421.496-.974.74-1.609.804-.809.082-1.555-.091-2.21-.593a3.014 3.014 0 01-1.034-1.451 3.871 3.871 0 01-.015-2.474 3.025 3.025 0 013.212-2.096c.607.06 1.138.27 1.596.732zm11.501 2.589c0 .832-.497 1.494-1.246 1.667-1.068.248-2.004-.465-2.049-1.572-.03-.722.218-1.325.886-1.671 1.071-.556 2.349.193 2.409 1.394.003.06 0 .121 0 .182m-1.588-3.337c-1.908-.03-3.447 1.407-3.48 3.25-.034 1.877 1.427 3.354 3.35 3.386 1.948.032 3.477-1.41 3.509-3.31.03-1.795-1.496-3.296-3.379-3.326m-15.81.277c0-.041-.01-.083-.016-.123h-1.728v1.787c-.002.68.005 1.36-.01 2.04a1.11 1.11 0 01-.762 1.01c-.48.16-1.027.025-1.33-.317-.243-.272-.299-.597-.3-.94-.002-1.128 0-2.256 0-3.383v-.202h-1.74v.196c0 1.051-.006 2.102.002 3.152.003.297.017.599.071.89.138.744.517 1.346 1.158 1.767.701.462 1.477.577 2.295.445 1.347-.219 2.287-1.264 2.337-2.607.047-1.237.019-2.477.023-3.715m-8.848 3.974c-.011-.852-.007-1.703-.01-2.555 0-.025.011-.05.02-.095h1.78v-1.461h-1.801V9.44h-1.757v1.593h-.99V12.5h.998v.232c.008.929-.014 1.859.031 2.786.042.867.476 1.502 1.313 1.826.415.16.852.214 1.293.194.373-.018.746-.077 1.11-.117v-1.437c-.452-.017-.893-.002-1.324-.058-.43-.057-.657-.35-.663-.785m-25.76.001c-.01-.852-.007-1.703-.009-2.555 0-.025.01-.05.02-.095h1.779v-1.461h-1.8V9.44h-1.758v1.593h-.99V12.5h.999v.232c.007.929-.014 1.859.03 2.786.043.867.477 1.502 1.313 1.826.416.16.853.214 1.293.194.374-.018.746-.077 1.11-.117v-1.437c-.451-.017-.892-.002-1.324-.058-.43-.057-.656-.35-.662-.785m43.931 2.239h1.722V11.4h-1.722zM86.786 8c-.624-.002-1.12.466-1.126 1.066-.007.597.478 1.068 1.111 1.08a1.082 1.082 0 001.116-1.073c.002-.593-.487-1.07-1.1-1.073m-22.735 5.634c-.266-.32-.6-.557-.956-.766-.443-.26-.922-.449-1.39-.656-.301-.133-.607-.257-.878-.444-.1-.068-.2-.149-.268-.246-.272-.392-.083-.943.373-1.119a1.63 1.63 0 011.068-.036c.414.121.726.383.987.712.05.061.095.125.144.19l1.186-.91a3.06 3.06 0 00-.796-.946 3.008 3.008 0 00-1.611-.64c-.574-.055-1.135-.005-1.677.2a2.5 2.5 0 00-1.011.68 2.18 2.18 0 00-.552 1.475c-.004.46.109.885.387 1.26.226.303.516.537.829.746.365.245.764.426 1.164.605.405.182.819.348 1.199.58.114.07.23.148.32.245.203.218.23.631.079.913-.142.265-.378.402-.66.473a2.097 2.097 0 01-.744.037 1.94 1.94 0 01-.837-.276 3.362 3.362 0 01-.793-.71c-.063-.076-.123-.154-.185-.232l-1.198.898c.22.384.492.716.826.997.43.363.915.621 1.463.758.551.138 1.11.16 1.672.07.517-.083.997-.261 1.412-.587.37-.289.636-.652.782-1.099.123-.375.152-.757.102-1.147a1.953 1.953 0 00-.437-1.025M18.166 15.37c-.612.45-1.314.607-2.173.446-.69-.13-1.233-.48-1.61-1.038-.526-.776-.634-1.65-.323-2.6.4-1.216 1.578-1.913 2.933-1.735.66.087 1.22.401 1.665.934.08.095.156.194.232.294l.109.14.03.039 1.373-.965-.022-.04c-.911-1.687-2.978-2.501-5.028-1.98a4.421 4.421 0 00-3.33 4.75c.205 2.056 1.828 3.674 3.947 3.934.216.026.426.039.63.039 1.878 0 3.25-1.063 3.774-2.15l.018-.039-1.37-.961s-.44.628-.855.933m9.214-1.812c.098-.641.694-1.3 1.546-1.27.769.028 1.314.545 1.322 1.27h-2.869zm2.77-2.447c-1.448-.547-3.134-.076-4.014 1.26-.957 1.453-.691 3.792 1.278 4.777.984.492 2.01.506 3.04.14a3.712 3.712 0 001.194-.71l-.718-1.172c-.067.047-.118.084-.171.118-.763.502-1.577.69-2.457.359-.495-.187-.798-.56-.934-1.08.042-.005.072-.013.103-.013h1.168c1.013 0 2.027-.002 3.04.002.116 0 .174-.023.183-.152.02-.258.08-.514.082-.772.015-1.245-.697-2.343-1.793-2.757zm17.699 4.815c-.997-.015-1.65-.726-1.634-1.78.014-.983.724-1.691 1.68-1.677.962.015 1.635.769 1.617 1.81-.016.95-.734 1.661-1.663 1.647m2.43-4.093c-1.57-1.464-4.125-1.19-5.299.566-.775 1.159-.694 2.86.222 3.913.697.802 1.58 1.197 2.641 1.206a3.418 3.418 0 002.878-1.475 3.252 3.252 0 00-.442-4.21M34.886 16.16a.634.634 0 01-.394-.633c.023-.28.165-.447.463-.538.075-.023.154-.048.232-.049.516-.004 1.032-.002 1.558-.002.035 1.095-1.085 1.547-1.86 1.222m3.564-3.113c-.124-.917-.583-1.606-1.47-1.936-1.084-.403-2.137-.279-3.128.314a3.348 3.348 0 00-.877.777l.886 1.045c.205-.173.389-.343.588-.491a1.767 1.767 0 011.59-.299c.508.141.784.588.693 1.328h-1.547a3.677 3.677 0 00-1.21.185c-1.59.554-1.461 2.304-.681 2.998.396.352.86.514 1.38.553.71.054 1.367-.087 1.944-.52.086-.065.168-.135.276-.222v.59h1.596v-.202c0-1.135.002-2.27-.002-3.406a5.41 5.41 0 00-.038-.714M53.92 11.78v-.742h-1.586v6.333h1.732v-.195c0-.955-.004-1.91.002-2.864.002-.216.017-.438.067-.646.153-.63.676-1.047 1.353-1.09.247-.016.497-.003.75-.003v-1.55c-.914-.2-1.673.053-2.319.757m-31.034-.002v-.739h-1.588v6.332h1.73v-.197c0-.95-.005-1.9.002-2.849a3 3 0 01.063-.647c.147-.633.676-1.059 1.359-1.102.248-.016.497-.003.751-.003v-1.55c-.916-.195-1.674.05-2.317.755" fill="#3C3C3C"/></g></svg><svg width="116" height="34" viewBox="-4 -4 116 34" id="btn_cs_logo_hover" y="65" xmlns="http://www.w3.org/2000/svg"><g fill="none" fill-rule="evenodd"><path stroke="#00CA70" d="M13 .5C6.096.5.5 6.096.5 13S6.096 25.5 13 25.5h82c6.904 0 12.5-5.596 12.5-12.5S101.904.5 95 .5H13z"/><path d="M82.514 14.043c-.005-.066-.015-.131-.025-.197-.087-.623-.419-1.069-1.013-1.281-.608-.218-1.185-.126-1.675.313-.494.444-.604 1.018-.524 1.647.162 1.288 1.503 1.763 2.455 1.224.593-.336.782-.884.782-1.524 0-.06.004-.121 0-.182zm-.029-2.404V8.132h1.738v9.253h-1.582v-.739c-.05.037-.078.05-.096.071-.421.496-.974.74-1.609.804-.809.082-1.555-.091-2.21-.593a3.014 3.014 0 01-1.034-1.451 3.871 3.871 0 01-.015-2.474 3.025 3.025 0 013.212-2.096c.607.06 1.138.27 1.596.732zm11.501 2.589c0 .832-.497 1.494-1.246 1.667-1.068.248-2.004-.465-2.049-1.572-.03-.722.218-1.325.886-1.671 1.071-.556 2.349.193 2.409 1.394.003.06 0 .121 0 .182m-1.588-3.337c-1.908-.03-3.447 1.407-3.48 3.25-.034 1.877 1.427 3.354 3.35 3.386 1.948.032 3.477-1.41 3.509-3.31.03-1.795-1.496-3.296-3.379-3.326m-15.81.277c0-.041-.01-.083-.016-.123h-1.728v1.787c-.002.68.005 1.36-.01 2.04a1.11 1.11 0 01-.762 1.01c-.48.16-1.027.025-1.33-.317-.243-.272-.299-.597-.3-.94-.002-1.128 0-2.256 0-3.383v-.202h-1.74v.196c0 1.051-.006 2.102.002 3.152.003.297.017.599.071.89.138.744.517 1.346 1.158 1.767.701.462 1.477.577 2.295.445 1.347-.219 2.287-1.264 2.337-2.607.047-1.237.019-2.477.023-3.715m-8.848 3.974c-.011-.852-.007-1.703-.01-2.555 0-.025.011-.05.02-.095h1.78v-1.461h-1.801V9.44h-1.757v1.593h-.99V12.5h.998v.232c.008.929-.014 1.859.031 2.786.042.867.476 1.502 1.313 1.826.415.16.852.214 1.293.194.373-.018.746-.077 1.11-.117v-1.437c-.452-.017-.893-.002-1.324-.058-.43-.057-.657-.35-.663-.785m-25.76.001c-.01-.852-.007-1.703-.009-2.555 0-.025.01-.05.02-.095h1.779v-1.461h-1.8V9.44h-1.758v1.593h-.99V12.5h.999v.232c.007.929-.014 1.859.03 2.786.043.867.477 1.502 1.313 1.826.416.16.853.214 1.293.194.374-.018.746-.077 1.11-.117v-1.437c-.451-.017-.892-.002-1.324-.058-.43-.057-.656-.35-.662-.785m43.931 2.239h1.722V11.4h-1.722zM86.786 8c-.624-.002-1.12.466-1.126 1.066-.007.597.478 1.068 1.111 1.08a1.082 1.082 0 001.116-1.073c.002-.593-.487-1.07-1.1-1.073m-22.735 5.634c-.266-.32-.6-.557-.956-.766-.443-.26-.922-.449-1.39-.656-.301-.133-.607-.257-.878-.444-.1-.068-.2-.149-.268-.246-.272-.392-.083-.943.373-1.119a1.63 1.63 0 011.068-.036c.414.121.726.383.987.712.05.061.095.125.144.19l1.186-.91a3.06 3.06 0 00-.796-.946 3.008 3.008 0 00-1.611-.64c-.574-.055-1.135-.005-1.677.2a2.5 2.5 0 00-1.011.68 2.18 2.18 0 00-.552 1.475c-.004.46.109.885.387 1.26.226.303.516.537.829.746.365.245.764.426 1.164.605.405.182.819.348 1.199.58.114.07.23.148.32.245.203.218.23.631.079.913-.142.265-.378.402-.66.473a2.097 2.097 0 01-.744.037 1.94 1.94 0 01-.837-.276 3.362 3.362 0 01-.793-.71c-.063-.076-.123-.154-.185-.232l-1.198.898c.22.384.492.716.826.997.43.363.915.621 1.463.758.551.138 1.11.16 1.672.07.517-.083.997-.261 1.412-.587.37-.289.636-.652.782-1.099.123-.375.152-.757.102-1.147a1.953 1.953 0 00-.437-1.025M18.166 15.37c-.612.45-1.314.607-2.173.446-.69-.13-1.233-.48-1.61-1.038-.526-.776-.634-1.65-.323-2.6.4-1.216 1.578-1.913 2.933-1.735.66.087 1.22.401 1.665.934.08.095.156.194.232.294l.109.14.03.039 1.373-.965-.022-.04c-.911-1.687-2.978-2.501-5.028-1.98a4.421 4.421 0 00-3.33 4.75c.205 2.056 1.828 3.674 3.947 3.934.216.026.426.039.63.039 1.878 0 3.25-1.063 3.774-2.15l.018-.039-1.37-.961s-.44.628-.855.933m9.214-1.812c.098-.641.694-1.3 1.546-1.27.769.028 1.314.545 1.322 1.27h-2.869zm2.77-2.447c-1.448-.547-3.134-.076-4.014 1.26-.957 1.453-.691 3.792 1.278 4.777.984.492 2.01.506 3.04.14a3.712 3.712 0 001.194-.71l-.718-1.172c-.067.047-.118.084-.171.118-.763.502-1.577.69-2.457.359-.495-.187-.798-.56-.934-1.08.042-.005.072-.013.103-.013h1.168c1.013 0 2.027-.002 3.04.002.116 0 .174-.023.183-.152.02-.258.08-.514.082-.772.015-1.245-.697-2.343-1.793-2.757zm17.699 4.815c-.997-.015-1.65-.726-1.634-1.78.014-.983.724-1.691 1.68-1.677.962.015 1.635.769 1.617 1.81-.016.95-.734 1.661-1.663 1.647m2.43-4.093c-1.57-1.464-4.125-1.19-5.299.566-.775 1.159-.694 2.86.222 3.913.697.802 1.58 1.197 2.641 1.206a3.418 3.418 0 002.878-1.475 3.252 3.252 0 00-.442-4.21M34.886 16.16a.634.634 0 01-.394-.633c.023-.28.165-.447.463-.538.075-.023.154-.048.232-.049.516-.004 1.032-.002 1.558-.002.035 1.095-1.085 1.547-1.86 1.222m3.564-3.113c-.124-.917-.583-1.606-1.47-1.936-1.084-.403-2.137-.279-3.128.314a3.348 3.348 0 00-.877.777l.886 1.045c.205-.173.389-.343.588-.491a1.767 1.767 0 011.59-.299c.508.141.784.588.693 1.328h-1.547a3.677 3.677 0 00-1.21.185c-1.59.554-1.461 2.304-.681 2.998.396.352.86.514 1.38.553.71.054 1.367-.087 1.944-.52.086-.065.168-.135.276-.222v.59h1.596v-.202c0-1.135.002-2.27-.002-3.406a5.41 5.41 0 00-.038-.714M53.92 11.78v-.742h-1.586v6.333h1.732v-.195c0-.955-.004-1.91.002-2.864.002-.216.017-.438.067-.646.153-.63.676-1.047 1.353-1.09.247-.016.497-.003.75-.003v-1.55c-.914-.2-1.673.053-2.319.757m-31.034-.002v-.739h-1.588v6.332h1.73v-.197c0-.95-.005-1.9.002-2.849a3 3 0 01.063-.647c.147-.633.676-1.059 1.359-1.102.248-.016.497-.003.751-.003v-1.55c-.916-.195-1.674.05-2.317.755" fill="#00CA70"/></g></svg><svg width="42" height="42" viewBox="-4 -4 42 42" id="btn_gnb_notice" x="287" y="201" xmlns="http://www.w3.org/2000/svg"><path d="M24.778 14.778c0-4.129-3.624-7.778-7.901-7.778-4.278 0-7.655 3.65-7.655 7.778v4.444L7.01 22.32a.5.5 0 00.407.791h19.168a.5.5 0 00.407-.79l-2.213-3.099v-4.444zm-11.111 8.889a3.333 3.333 0 006.666 0" fill="none" fill-rule="evenodd" stroke="#333" stroke-width="1.4"/></svg><svg width="42" height="42" viewBox="-4 -4 42 42" id="btn_gnb_notice_hover" x="179" y="243" xmlns="http://www.w3.org/2000/svg"><path d="M24.81 14.778C24.81 10.649 21.185 7 16.907 7s-7.654 3.65-7.654 7.778v4.444L7.04 22.32a.5.5 0 00.407.791h19.168a.5.5 0 00.406-.79l-2.213-3.099v-4.444zm-11.112 8.889a3.333 3.333 0 006.667 0" fill="none" fill-rule="evenodd" stroke="#00CA70" stroke-width="1.4"/></svg><svg width="33" height="33" viewBox="-4 -4 33 33" id="btn_gnb_search" x="175" y="293" xmlns="http://www.w3.org/2000/svg"><g fill="none" fill-rule="evenodd" stroke="#424242" stroke-width="1.4" transform="translate(5 5)"><circle cx="6" cy="6" r="6"/><path stroke-linecap="round" d="M10.5 10.5l4 4"/></g></svg><svg width="33" height="33" viewBox="-4 -4 33 33" id="btn_gnb_search_hover" x="208" y="293" xmlns="http://www.w3.org/2000/svg"><g fill="none" fill-rule="evenodd" stroke="#00CA70" stroke-width="1.4" transform="translate(5 5)"><circle cx="6" cy="6" r="6"/><path stroke-linecap="round" d="M10.5 10.5l4 4"/></g></svg><svg width="42" height="42" viewBox="-4 -4 42 42" id="btn_gnb_upload" x="221" y="243" xmlns="http://www.w3.org/2000/svg"><g fill="none" fill-rule="evenodd"><path stroke="#333" stroke-width="1.4" d="M24.7 11.867l3.842-1.92a.8.8 0 011.158.715v12.676a.8.8 0 01-1.158.716L24.7 22.133V24.5a1.2 1.2 0 01-1.2 1.2h-16a1.2 1.2 0 01-1.2-1.2v-15a1.2 1.2 0 011.2-1.2h16a1.2 1.2 0 011.2 1.2v2.367z"/><path fill="#333" d="M15.75 13a.75.75 0 01.75.75v6.5a.75.75 0 11-1.5 0v-6.5a.75.75 0 01.75-.75z"/><path fill="#333" d="M19.75 17a.75.75 0 01-.75.75h-6.5a.75.75 0 110-1.5H19a.75.75 0 01.75.75z"/></g></svg><svg width="42" height="42" viewBox="-4 -4 42 42" id="btn_gnb_upload_hover" x="263" y="243" xmlns="http://www.w3.org/2000/svg"><g fill="none" fill-rule="evenodd"><path stroke="#00CA70" stroke-width="1.4" d="M24.7 11.867l3.842-1.92a.8.8 0 011.158.715v12.676a.8.8 0 01-1.158.716L24.7 22.133V24.5a1.2 1.2 0 01-1.2 1.2h-16a1.2 1.2 0 01-1.2-1.2v-15a1.2 1.2 0 011.2-1.2h16a1.2 1.2 0 011.2 1.2v2.367z"/><path fill="#00CA70" d="M15.75 13a.75.75 0 01.75.75v6.5a.75.75 0 11-1.5 0v-6.5a.75.75 0 01.75-.75z"/><path fill="#00CA70" d="M19.75 17a.75.75 0 01-.75.75h-6.5a.75.75 0 110-1.5H19a.75.75 0 01.75.75z"/></g></svg><svg width="17" height="23" viewBox="-4 -4 17 23" id="btn_go_next" x="331" y="211" xmlns="http://www.w3.org/2000/svg"><path fill="none" stroke="#FFF" stroke-linecap="round" stroke-linejoin="round" stroke-width="1.636" d="M2 12.9l5.345-5.4L2 2.1"/></svg><svg width="16" height="21" viewBox="-4 -4 16 21" id="btn_go_next_m" x="331" y="256" xmlns="http://www.w3.org/2000/svg"><path fill="none" stroke="#FFF" stroke-linecap="round" stroke-linejoin="round" stroke-width="1.5" d="M2 11l4.455-4.5L2 2"/></svg><svg width="42" height="43" viewBox="-4 -4 42 43" id="btn_lnb_menu" x="95" y="243" xmlns="http://www.w3.org/2000/svg"><g fill-rule="evenodd" transform="translate(10 11.5)"><rect width="14" height="1.2" rx=".6"/><rect width="14" height="1.2" y="5" rx=".6"/><rect width="14" height="1.2" y="10" rx=".6"/></g></svg><svg width="42" height="43" viewBox="-4 -4 42 43" id="btn_lnb_menu_hover" x="137" y="243" xmlns="http://www.w3.org/2000/svg"><g fill="#00CA70" fill-rule="evenodd" transform="translate(10 11.5)"><rect width="14" height="1.2" rx=".6"/><rect width="14" height="1.2" y="5" rx=".6"/><rect width="14" height="1.2" y="10" rx=".6"/></g></svg><svg width="58" height="59" viewBox="-4 -4 58 59" id="ic_ch_live_share" x="66" y="125" xmlns="http://www.w3.org/2000/svg"><g transform="translate(1 1.5)" fill="none" fill-rule="evenodd"><rect width="47.158" height="47.158" x=".421" y=".421" stroke="#CACACA" stroke-width=".842" rx="23.579"/><g fill="#333"><path d="M29.912 22.714l-.034-1.65a.886.886 0 00-.886-.868h-1.924c-2.12.03-3.47.813-4.23 1.465-.28.24-.505.48-.683.702.535-2.705 2.238-5.283 5.091-5.283h1.79c.49 0 .887-.397.887-.886v-1.566l4.618 4.038-4.628 4.047zm5.409-4.543l-5.184-4.533a.667.667 0 00-.712-.105.657.657 0 00-.39.6v2.061h-1.79c-3.771 0-5.817 3.69-6.122 7.117a.659.659 0 00.66.716.666.666 0 00.612-.403c.044-.102 1.108-2.492 4.683-2.542h1.913l.044 2.13a.658.658 0 00.663.646.666.666 0 00.438-.164l5.184-4.532a.658.658 0 000-.991z"/><path d="M32.445 25.794l-.003-.001h-.002a.444.444 0 00-.44.435l-.002.009.002.01v3.189a.885.885 0 01-.886.883H16.931a.886.886 0 01-.887-.883V17.07c0-.487.398-.883.887-.883h4.165c.009 0 .017.005.025.005a.444.444 0 100-.888h-4.19c-.975 0-1.773.794-1.773 1.766v12.366c0 .971.798 1.767 1.773 1.767h14.183c.975 0 1.773-.796 1.773-1.767v-3.199a.445.445 0 00-.442-.444"/></g></g></svg><svg width="34" height="34" viewBox="-4 -4 34 34" id="ic_end_comment" x="73" y="293" xmlns="http://www.w3.org/2000/svg"><g fill="none" fill-rule="evenodd"><path stroke="#333" stroke-width="1.1" d="M16.558 1.55a9.245 9.245 0 015.974 2.979 9.216 9.216 0 012.418 6.236 9.205 9.205 0 01-2.54 6.363 9.235 9.235 0 01-6.521 2.88h0l-2.903 4.762-2.903-4.76a9.246 9.246 0 01-6.503-2.892 9.208 9.208 0 01-2.53-6.353A9.22 9.22 0 013.457 4.54a9.254 9.254 0 015.955-2.987h0z"/><path fill="#333" d="M14.224 10.676a1.191 1.191 0 11-2.38 0 1.191 1.191 0 012.379 0m5.574 0a1.191 1.191 0 11-1.191-1.19c.657 0 1.19.534 1.19 1.19m-11.146 0a1.191 1.191 0 11-2.382 0 1.191 1.191 0 012.382 0"/></g></svg><svg width="29" height="29" viewBox="-4 -4 29 29" id="ic_end_comment_s" x="331" y="31" xmlns="http://www.w3.org/2000/svg"><g fill="none" fill-rule="evenodd"><path d="M0 0h21v21H0z" opacity=".3"/><path stroke="#333" stroke-width="1.053" d="M13.342 1.526a7.311 7.311 0 014.72 2.355 7.286 7.286 0 011.911 4.93 7.277 7.277 0 01-2.008 5.032 7.298 7.298 0 01-5.203 2.278h0l-2.273 3.73-2.274-3.729a7.309 7.309 0 01-5.188-2.287 7.28 7.28 0 01-2-5.023c0-1.896.72-3.622 1.903-4.922a7.32 7.32 0 014.704-2.362h0z"/><path fill="#333" d="M11.48 8.74a.954.954 0 01-1.906.001.953.953 0 011.905 0m4.458-.001a.953.953 0 11-.952-.951c.526 0 .952.427.952.952M7.02 8.74a.953.953 0 11-.952-.951c.526 0 .952.427.952.952"/></g></svg><svg width="34" height="34" viewBox="-4 -4 34 34" id="ic_end_keep" x="107" y="293" xmlns="http://www.w3.org/2000/svg"><g transform="translate(.5 .5)" stroke="#333" fill="none" fill-rule="evenodd"><circle cx="12.5" cy="12.5" r="11.95" stroke-width="1.1"/><path d="M12.667 6v6.667m6.291 2.24l-6.291-2.24" stroke-linecap="round" stroke-linejoin="round" stroke-width="1.333"/></g></svg><svg width="29" height="29" viewBox="-4 -4 29 29" id="ic_end_keep_s" x="331" y="60" xmlns="http://www.w3.org/2000/svg"><g transform="translate(1 1)" stroke="#333" fill="none" fill-rule="evenodd"><circle cx="9.5" cy="9.5" r="9"/><path d="M9.5 5v5m4.718 1.68L9.5 10" stroke-linecap="round" stroke-linejoin="round"/></g></svg><svg width="34" height="34" viewBox="-4 -4 34 34" id="ic_end_share" x="141" y="293" xmlns="http://www.w3.org/2000/svg"><g fill="#333" fill-rule="evenodd"><path d="M18.52 12.972l-.04-1.959a1.052 1.052 0 00-1.052-1.03h-2.287c-2.517.034-4.12.964-5.023 1.739-.332.284-.6.571-.81.833.636-3.212 2.658-6.272 6.046-6.272h2.126c.58 0 1.052-.472 1.052-1.053V3.37l5.485 4.796-5.496 4.806zm6.423-5.394l-6.156-5.383a.789.789 0 00-1.307.589V5.23h-2.126c-4.478 0-6.907 4.381-7.27 8.452a.783.783 0 00.785.85c.31 0 .6-.185.727-.48.052-.12 1.315-2.958 5.56-3.017h2.272l.052 2.53a.782.782 0 00.788.767.79.79 0 00.52-.195l6.155-5.383a.78.78 0 000-1.176z"/><path d="M21.528 16.63l-.003-.001h-.003a.526.526 0 00-.522.516l-.002.01.002.012v3.788c0 .578-.472 1.049-1.053 1.049H3.105c-.58 0-1.052-.47-1.052-1.05V6.27c0-.578.472-1.049 1.052-1.049h4.947c.01 0 .02.006.03.006a.528.528 0 000-1.054H3.105A2.107 2.107 0 001 6.27v14.685c0 1.154.947 2.098 2.105 2.098h16.842a2.108 2.108 0 002.106-2.098v-3.799a.528.528 0 00-.525-.527"/></g></svg><svg width="29" height="29" viewBox="-4 -4 29 29" id="ic_end_share_s" x="331" y="89" xmlns="http://www.w3.org/2000/svg"><g fill="#333" stroke="#333" fill-rule="evenodd"><path stroke-width=".05" d="M15.017 10.777l-.033-1.566a.84.84 0 00-.841-.825h-1.83c-2.014.028-3.297.772-4.018 1.391a5.12 5.12 0 00-.649.667c.509-2.57 2.127-5.018 4.837-5.018h1.7a.842.842 0 00.843-.842V3.096l4.387 3.837-4.396 3.844zm5.137-4.315L15.23 2.156a.63.63 0 00-1.046.47v1.958h-1.701c-3.582 0-5.526 3.505-5.815 6.761a.624.624 0 00.475.661.636.636 0 00.734-.364c.041-.097 1.052-2.367 4.448-2.414h1.818l.04 2.023a.63.63 0 001.047.458l4.924-4.306a.623.623 0 000-.94h0z"/><path stroke-width=".1" d="M17.423 13.703h-.005a.421.421 0 00-.418.413l-.002.009.002.009v3.03a.841.841 0 01-.842.839H2.684a.842.842 0 01-.842-.84V5.417c0-.463.378-.84.842-.84h3.957c.009.001.016.006.024.006a.423.423 0 000-.844h-3.98A1.684 1.684 0 001 5.416v11.748c0 .923.758 1.678 1.684 1.678h13.474c.926 0 1.684-.755 1.684-1.678v-3.039a.422.422 0 00-.42-.422"/></g></svg><svg width="66" height="66" viewBox="-4 -4 66 66" id="icon_alert" y="125"><g fill="none" fill-rule="evenodd" transform="translate(1 1)"><rect width="3.35" height="17.869" x="26.325" y="16.715" fill="#B2B2B2" rx="1.675"/><circle cx="28" cy="39.61" r="1.675" fill="#B2B2B2"/><circle cx="28" cy="28" r="28" stroke="#B2B2B2"/></g></svg><svg version="1.1" id="icon_arrow_right" x="347" y="256" viewBox="-4 -4 15 18" xml:space="preserve" width="15" height="18" xmlns="http://www.w3.org/2000/svg"><style>.axst0{fill:none;stroke:#999;stroke-width:1.3}</style><path class="axst0" d="M1.3.6L5.7 5 1.3 9.4"/></svg><svg version="1.1" id="icon_arrow_right2" x="265" y="208" viewBox="-4 -4 15 18" xml:space="preserve" width="15" height="18" xmlns="http://www.w3.org/2000/svg"><style>.ayst0{fill:none;stroke:#666;stroke-width:1.3}</style><path class="ayst0" d="M1.3.6L5.7 5 1.3 9.4"/></svg><svg width="22" height="35" viewBox="-4 -4 22 35" id="icon_ch_layer_arrow" x="243" y="208" xmlns="http://www.w3.org/2000/svg"><path fill="none" stroke="#E1E1E1" stroke-linecap="round" stroke-width="1.5" d="M5.5 9.5l3.788 3.788a.3.3 0 010 .424L5.5 17.5"/></svg><svg width="31" height="31" fill="none" viewBox="-4 -4 31 31" id="icon_channel_home" x="331" xmlns="http://www.w3.org/2000/svg"><circle cx="11.5" cy="11.5" r="11" fill="#fff" stroke="#999"/><path fill-rule="evenodd" clip-rule="evenodd" d="M6 12.004L11.502 6l5.507 6.004H15v4.003h-2.964v-3.99h-1.041v3.996H8.008v-3.994" fill="#939393"/></svg><svg width="44" height="53" viewBox="-4 -4 44 53" id="icon_feed" x="131" y="68" xmlns="http://www.w3.org/2000/svg"><g fill="none" fill-rule="evenodd"><path stroke="#000" stroke-linecap="round" stroke-width="1.2" d="M19 28.5h-7a2 2 0 01-2-2v-8a2 2 0 012-2h12a2 2 0 012 2V21"/><path fill="#000" d="M19.5 22.833l-1.878 1.252a.4.4 0 01-.622-.332v-2.506a.4.4 0 01.622-.332l1.879 1.252a.4.4 0 010 .666zm6.9 3.967H29a.7.7 0 010 1.4h-2.6v2.6a.7.7 0 01-1.4 0v-2.6h-2.6a.7.7 0 010-1.4H25v-2.6a.7.7 0 011.4 0v2.6z"/></g></svg><svg width="51" height="50" viewBox="-4 -4 51 50" id="icon_info" y="243" xmlns="http://www.w3.org/2000/svg"><g fill="none" fill-rule="evenodd"><path stroke="#B6B6B6" d="M41.5 21c0 11.044-8.954 20-20 20s-20-8.956-20-20 8.954-20 20-20 20 8.956 20 20h0zm-20.004-4.741v16"/><path fill="#B6B6B6" d="M22.5 11.439a1 1 0 11-2.001 0 1 1 0 012.001 0"/></g></svg><svg width="52" height="28" viewBox="-4 -4 52 28" id="icon_live_ch_home" x="124" y="125" xmlns="http://www.w3.org/2000/svg"><g fill="none" fill-rule="evenodd"><rect width="44" height="20" fill="#FF0031" rx="1.4"/><path d="M13.495 13.176v2.282H6.2V4.5h2.293v8.676zm4.314 2.282h-2.293V4.5h2.293zm7.881 0h-2.765L19.242 4.5h2.567l2.506 8.596h.053L26.874 4.5h2.499zm12.224-2.021v2.021h-7.259V4.5h7.259v1.999h-4.966v2.535h4.685v1.761h-4.685v2.642z" fill="#FFF" fill-rule="nonzero"/></g></svg><svg width="44" height="44" viewBox="-4 -4 44 44" id="icon_lnb_arrow_open" x="51" y="243" xmlns="http://www.w3.org/2000/svg"><path fill="none" stroke="#A5A5A5" stroke-linecap="round" stroke-width="1.3" d="M15 16l3.359 3.359a.2.2 0 00.282 0L22 16"/></svg><svg width="44" height="45" viewBox="-4 -4 44 45" id="icon_lnb_arrow_open_hover" x="287" y="156" xmlns="http://www.w3.org/2000/svg"><path fill="none" stroke="#6D6D6D" stroke-linecap="round" stroke-width="1.3" d="M15 16.5l3.359 3.359a.2.2 0 00.282 0L22 16.5"/></svg><svg width="25" height="18" viewBox="-4 -4 25 18" id="icon_lnb_beta" x="331" y="146" xmlns="http://www.w3.org/2000/svg"><path fill="#00CA70" fill-rule="evenodd" d="M15.704 6.375a1.167 1.167 0 00-.107-.008c-.243 0-.457.02-.64.06-.18.042-.336.1-.465.176a.939.939 0 00-.31.304 1.168 1.168 0 00-.156.435 1.2 1.2 0 00-.016.34c.01.098.044.18.1.243a.38.38 0 00.19.153.879.879 0 00.31.048c.188 0 .37-.043.547-.13.175-.088.342-.22.5-.401l.205-1.21a1.23 1.23 0 01-.158-.01m1.192-.74l-.293 1.49c-.026.157-.047.284-.06.382-.015.1-.017.19-.009.27.016.11.042.2.081.266a.915.915 0 00.195.222l-.58.619a.777.777 0 01-.308-.218 1.005 1.005 0 01-.198-.435 1.86 1.86 0 01-.674.465 2.005 2.005 0 01-1.368.061.987.987 0 01-.657-.723 1.602 1.602 0 01-.002-.63 2.04 2.04 0 01.266-.737c.13-.212.304-.388.522-.526.206-.134.46-.236.76-.306s.642-.104 1.026-.104h.39l.052-.305c.03-.174.04-.319.028-.435a.632.632 0 00-.09-.288.45.45 0 00-.215-.148 1.053 1.053 0 00-.318-.042 1.99 1.99 0 00-.7.13 4.406 4.406 0 00-.772.391l-.285-.67a3.8 3.8 0 01.52-.275c.18-.078.358-.146.535-.204.17-.053.34-.093.507-.122.17-.03.332-.043.487-.043.272 0 .498.034.678.104.18.07.318.18.415.331.09.157.141.358.153.601a3.71 3.71 0 01-.086.88m-3.477-1.83l-.308.785a19.84 19.84 0 00-.453-.027 9.464 9.464 0 00-.458-.009l-.466 2.77a2.6 2.6 0 00-.045.413c0 .096.033.185.097.266a.233.233 0 00.155.091c.073.015.151.02.235.013a2.003 2.003 0 00.5-.095l-.006.626a1.795 1.795 0 01-.45.144 2.332 2.332 0 01-.44.049c-.2 0-.37-.025-.508-.075a.666.666 0 01-.325-.23.755.755 0 01-.16-.38 1.706 1.706 0 01.016-.544l.515-3.048h-.526l.12-.705h.524a10.78 10.78 0 00.099-.679l.035-.305.03-.278 1.042-.158a8.257 8.257 0 00-.18.702c-.046.224-.09.463-.133.718a13.022 13.022 0 001.09-.043M9.375 4.834a.724.724 0 00-.248-.283.68.68 0 00-.38-.1c-.16 0-.306.029-.435.087a.963.963 0 00-.338.253c-.102.115-.19.26-.26.43-.07.172-.125.371-.163.597H9.45c.034-.197.044-.38.03-.549a1.253 1.253 0 00-.105-.435m.929 1.507l-.03.174h-2.85l-.02.122a2.324 2.324 0 00-.032.636.89.89 0 00.158.444.7.7 0 00.334.27c.142.058.32.087.53.087.23 0 .442-.035.644-.105.2-.07.399-.176.596-.322l.263.566a3.083 3.083 0 01-.84.453c-.298.105-.6.157-.905.157-.35 0-.646-.065-.888-.192a1.392 1.392 0 01-.565-.532 1.887 1.887 0 01-.272-.804 3.585 3.585 0 01.037-1.016c.064-.377.17-.721.317-1.035.148-.314.329-.584.545-.81.203-.22.438-.394.704-.519.265-.123.545-.186.84-.186.305 0 .566.054.78.165.215.11.384.273.51.488.117.225.188.502.213.827a4.64 4.64 0 01-.07 1.132M5.66 1.29c-.094-.162-.26-.244-.497-.244-.348 0-.66.156-.934.464-.275.31-.509.733-.702 1.266L2.144 6.56a.828.828 0 00-.007.303c.015.13.039.232.072.302a.807.807 0 00.368.452c.182.109.39.162.627.162a1.36 1.36 0 001.04-.464c.285-.309.47-.715.555-1.22.08-.47.016-.858-.193-1.16-.208-.302-.524-.45-.947-.441l-.269.011.32-1.033h.399c.386 0 .735-.149 1.048-.447.313-.298.505-.66.577-1.086.045-.27.021-.487-.074-.65m1.281.476a2.44 2.44 0 01-.595 1.254c-.314.348-.774.627-1.38.836.461.256.768.563.922.923.154.36.185.819.09 1.376a3.58 3.58 0 01-.361 1.091 3.215 3.215 0 01-.63.837c-.254.232-.536.41-.846.533a2.64 2.64 0 01-.986.187c-.32 0-.587-.057-.806-.168-.218-.113-.44-.332-.666-.657l-.617 1.742H0L2.329 2.96c.32-.975.75-1.713 1.29-2.212C4.157.25 4.765 0 5.438 0c.549 0 .958.163 1.229.488.27.325.362.75.273 1.277"/></svg><svg width="44" height="52" viewBox="-4 -4 44 52" id="icon_lnb_broad" x="199" xmlns="http://www.w3.org/2000/svg"><g fill="none" fill-rule="evenodd"><path stroke="#000" stroke-width="1.2" d="M12.5 16.6a2.4 2.4 0 00-2.4 2.4v6a2.4 2.4 0 002.4 2.4h11a2.4 2.4 0 002.4-2.4v-6a2.4 2.4 0 00-2.4-2.4h-11z"/><path fill="#000" d="M19.831 22.133l-2.51 1.673a.4.4 0 01-.621-.333v-3.346a.4.4 0 01.622-.333l2.51 1.673a.4.4 0 010 .666z"/><path stroke="#000" stroke-linecap="round" stroke-width="1.2" d="M14.5 29.5h7M15 14l3 2 3-2"/></g></svg><svg width="44" height="52" viewBox="-4 -4 44 52" id="icon_lnb_broad_on" x="199" y="52" xmlns="http://www.w3.org/2000/svg"><g fill="none" fill-rule="evenodd"><path fill="#00CA70" stroke="#00CA70" stroke-width="1.2" d="M12.5 16.6a2.4 2.4 0 00-2.4 2.4v6a2.4 2.4 0 002.4 2.4h11a2.4 2.4 0 002.4-2.4v-6a2.4 2.4 0 00-2.4-2.4h-11z"/><path fill="#FFF" d="M19.831 22.133l-2.51 1.673a.4.4 0 01-.621-.333v-3.346a.4.4 0 01.622-.333l2.51 1.673a.4.4 0 010 .666z"/><path stroke="#00CA70" stroke-linecap="round" stroke-width="1.2" d="M14.5 29.5h7M15 14l3 2 3-2"/></g></svg><svg width="15" height="22" viewBox="-4 -4 15 22" id="icon_lnb_close_arrow" x="331" y="234" xmlns="http://www.w3.org/2000/svg"><path fill="none" stroke="#333" stroke-linecap="round" d="M6 8.388L3.654 5.572a.2.2 0 00-.308 0L1 8.388"/></svg><svg width="44" height="52" viewBox="-4 -4 44 52" id="icon_lnb_feed" x="199" y="104" xmlns="http://www.w3.org/2000/svg"><g fill="none" fill-rule="evenodd" transform="translate(11 14.5)"><rect width="15" height="11.25" y="3.333" stroke="#000" stroke-width="1.2" rx="2"/><path fill="#000" d="M9.871 9.41l-3.165 1.9a.576.576 0 01-.873-.494V7.017a.576.576 0 01.873-.494l3.165 1.9a.576.576 0 010 .988z"/><path stroke="#000" stroke-linecap="round" stroke-linejoin="round" stroke-width="1.2" d="M1.667.833h11.666"/></g></svg><svg width="44" height="52" viewBox="-4 -4 44 52" id="icon_lnb_feed_on" y="191" xmlns="http://www.w3.org/2000/svg"><g fill="none" fill-rule="evenodd" transform="translate(11 14.5)"><rect width="15" height="11.25" y="3.333" fill="#00CA70" stroke="#00CA70" stroke-width="1.2" rx="2"/><path fill="#FBFBFB" d="M9.871 9.41l-3.165 1.9a.576.576 0 01-.873-.494V7.017a.576.576 0 01.873-.494l3.165 1.9a.576.576 0 010 .988z"/><path stroke="#00CA70" stroke-linecap="round" stroke-linejoin="round" stroke-width="1.2" d="M1.667.833h11.666"/></g></svg><svg width="44" height="52" viewBox="-4 -4 44 52" id="icon_lnb_home" x="44" y="191" xmlns="http://www.w3.org/2000/svg"><g fill="none" fill-rule="evenodd" stroke="#000" stroke-width="1.2"><path stroke-linecap="round" d="M10 22.5l7.34-7.432a.223.223 0 01.32 0L25 22.5"/><path d="M10 22.5h2.679v6.063a.5.5 0 00.5.5h8.642a.5.5 0 00.5-.5V22.5H25"/></g></svg><svg width="44" height="52" viewBox="-4 -4 44 52" id="icon_lnb_home_on" x="88" y="191" xmlns="http://www.w3.org/2000/svg"><path fill="#00CA70" fill-rule="evenodd" stroke="#00CA70" stroke-width="1.2" d="M10.097 22.5h2.582v6.063a.5.5 0 00.5.5h8.642a.5.5 0 00.5-.5V22.5h2.582a.04.04 0 00.029-.068l-7.404-7.404a.04.04 0 00-.056 0l-7.404 7.404a.04.04 0 00.029.068z"/></svg><svg width="44" height="52" viewBox="-4 -4 44 52" id="icon_lnb_live" x="132" y="191" xmlns="http://www.w3.org/2000/svg"><g fill="none" fill-rule="evenodd" stroke="#000" stroke-width="1.2" transform="translate(6.35 10.35)"><circle cx="12" cy="12" r="2"/><path stroke-linecap="round" d="M8.464 8.464a5 5 0 000 7.072m7.072 0a5 5 0 000-7.072M6.343 6.343a8 8 0 000 11.314m11.314 0a8 8 0 000-11.314"/></g></svg><svg width="44" height="52" viewBox="-4 -4 44 52" id="icon_lnb_live_on" x="176" y="191" xmlns="http://www.w3.org/2000/svg"><g fill="none" fill-rule="evenodd" stroke="#00CA70" stroke-width="1.2" transform="translate(6.35 10.35)"><circle cx="12" cy="12" r="2" fill="#00CA70"/><path stroke-linecap="round" d="M8.464 8.464a5 5 0 000 7.072m7.072 0a5 5 0 000-7.072M6.343 6.343a8 8 0 000 11.314m11.314 0a8 8 0 000-11.314"/></g></svg><svg width="15" height="22" viewBox="-4 -4 15 22" id="icon_lnb_more_arrow" x="346" y="234" xmlns="http://www.w3.org/2000/svg"><path fill="none" stroke="#333" stroke-linecap="round" d="M1 5.5l2.346 2.816a.2.2 0 00.308 0L6 5.5"/></svg><svg width="44" height="52" viewBox="-4 -4 44 52" id="icon_lnb_my" x="243" xmlns="http://www.w3.org/2000/svg"><g fill="none" fill-rule="evenodd" stroke="#000" stroke-width="1.2"><path d="M18 14.5a3 3 0 110 6 3 3 0 010-6z"/><path stroke-linecap="round" d="M11 29c0-2.761 1.445-5 4.667-5h4.666C23.555 24 25 26.239 25 29"/></g></svg><svg width="44" height="52" viewBox="-4 -4 44 52" id="icon_lnb_my_on" x="243" y="52" xmlns="http://www.w3.org/2000/svg"><path d="M18 14.5a3 3 0 110 6 3 3 0 010-6zM11 29c0-2.761 1.445-5 4.667-5h4.666C23.555 24 25 26.239 25 29H11z" fill="#00CA70" fill-rule="evenodd" stroke="#00CA70" stroke-width="1.2"/></svg><svg width="19" height="19" viewBox="-4 -4 19 19" id="icon_lnb_new" x="331" y="297" xmlns="http://www.w3.org/2000/svg"><g fill="none" fill-rule="evenodd"><circle cx="5.5" cy="5.5" r="5.5" fill="#FF4E4E"/><path fill="#FFF" fill-rule="nonzero" d="M4.507 8h-1.19V3.068H4.32l2.09 2.868h.027V3.068h1.19V8h-.992L4.534 5.105h-.027z"/></g></svg><svg width="44" height="52" viewBox="-4 -4 44 52" id="icon_lnb_popular" x="243" y="104" xmlns="http://www.w3.org/2000/svg"><path fill="none" stroke="#000" stroke-width="1.2" d="M18 26.5l-4.752 2.498a.3.3 0 01-.435-.316l.907-5.291-3.844-3.748a.3.3 0 01.166-.512l5.313-.772 2.376-4.814a.3.3 0 01.538 0l2.376 4.814 5.313.772a.3.3 0 01.166.512l-3.844 3.748.907 5.291a.3.3 0 01-.435.316L18 26.5z"/></svg><svg width="44" height="52" viewBox="-4 -4 44 52" id="icon_lnb_popular_on" x="243" y="156" xmlns="http://www.w3.org/2000/svg"><path fill="#00CA70" fill-rule="evenodd" stroke="#00CA70" stroke-width="1.2" d="M18 26.5l-4.752 2.498a.3.3 0 01-.435-.316l.907-5.291-3.844-3.748a.3.3 0 01.166-.512l5.313-.772 2.376-4.814a.3.3 0 01.538 0l2.376 4.814 5.313.772a.3.3 0 01.166.512l-3.844 3.748.907 5.291a.3.3 0 01-.435.316L18 26.5z"/></svg><svg width="44" height="52" viewBox="-4 -4 44 52" id="icon_lnb_theme" x="287" xmlns="http://www.w3.org/2000/svg"><g fill="none" fill-rule="evenodd"><path stroke="#000" stroke-width="1.2" d="M13.5 17.6a1.4 1.4 0 00-1.4 1.4v8a1.4 1.4 0 001.4 1.4h12a1.4 1.4 0 001.4-1.4v-8a1.4 1.4 0 00-1.4-1.4h-12z"/><path fill="#FBFBFB" stroke="#000" stroke-width="1.2" d="M10.5 14.6A1.4 1.4 0 009.1 16v8a1.4 1.4 0 001.4 1.4h12a1.4 1.4 0 001.4-1.4v-8a1.4 1.4 0 00-1.4-1.4h-12z"/><path fill="#000" d="M18.131 20.133l-2.51 1.673a.4.4 0 01-.621-.333v-3.346a.4.4 0 01.622-.333l2.51 1.673a.4.4 0 010 .666z"/></g></svg><svg width="44" height="52" viewBox="-4 -4 44 52" id="icon_lnb_theme_on" x="287" y="52" xmlns="http://www.w3.org/2000/svg"><g fill="none" fill-rule="evenodd"><path fill="#00CA70" stroke="#00CA70" stroke-width="1.2" d="M10 14.6A1.4 1.4 0 008.6 16v8a1.4 1.4 0 001.4 1.4h12a1.4 1.4 0 001.4-1.4v-8a1.4 1.4 0 00-1.4-1.4H10z"/><path fill="#FBFBFB" d="M17.631 20.133l-2.51 1.673a.4.4 0 01-.621-.333v-3.346a.4.4 0 01.622-.333l2.51 1.673a.4.4 0 010 .666z"/><path stroke="#00CA70" stroke-linecap="round" stroke-width="1.2" d="M12 28.5h12.5a2 2 0 002-2V18"/></g></svg><svg width="44" height="52" viewBox="-4 -4 44 52" id="icon_lnb_thme_on" x="287" y="104" xmlns="http://www.w3.org/2000/svg"><g fill="none" fill-rule="evenodd"><path fill="#00CA70" stroke="#00CA70" stroke-width="1.2" d="M10 14.6A1.4 1.4 0 008.6 16v8a1.4 1.4 0 001.4 1.4h12a1.4 1.4 0 001.4-1.4v-8a1.4 1.4 0 00-1.4-1.4H10z"/><path fill="#FBFBFB" d="M17.5 20.333l-1.878 1.252a.4.4 0 01-.622-.332v-2.506a.4.4 0 01.622-.332l1.879 1.252a.4.4 0 010 .666z"/><path stroke="#00CA70" stroke-linecap="round" stroke-width="1.2" d="M12 28.5h12.5a2 2 0 002-2V18"/></g></svg><svg width="35" height="35" viewBox="-4 -4 35 35" id="icon_play_on" x="199" y="156" xmlns="http://www.w3.org/2000/svg"><defs><linearGradient id="bza" x1="49.999%" x2="49.999%" y1="87.264%" y2="-1.71%"><stop offset="0%" stop-color="#FFF"/><stop offset="100%" stop-color="#B2EFD5"/></linearGradient></defs><g fill="none" fill-rule="evenodd"><path fill="#00DE7B" d="M13.5 0C6.044 0 0 6.044 0 13.5S6.044 27 13.5 27 27 20.956 27 13.5 20.956 0 13.5 0" opacity=".9"/><path fill="url(#bza)" d="M0 12.098h3.683V1.874H0z" transform="translate(9.4 6.3)"/><path fill="#FFF" d="M21.08 12.3a1.848 1.848 0 00-2.537-.582l-8.277 5.14a1.824 1.824 0 00-.586 2.522 1.848 1.848 0 002.538.582l8.277-5.14a1.824 1.824 0 00.585-2.522"/><path fill="#FFF" d="M21.08 14.24a1.848 1.848 0 01-2.537.583l-8.277-5.14A1.824 1.824 0 019.68 7.16a1.848 1.848 0 012.538-.583l8.277 5.14a1.824 1.824 0 01.585 2.522"/></g></svg><svg width="38" height="38" viewBox="-4 -4 38 38" id="icon_popup_back" y="293" xmlns="http://www.w3.org/2000/svg"><g fill="none" fill-rule="evenodd"><path d="M0 0h30v30H0z"/><g fill="#FFF" transform="translate(3.5 5)"><rect width="21" height="1.5" x="1.373" y="9.073" rx=".75"/><rect width="13" height="1.5" x="-1" y="5" rx=".75" transform="rotate(-45 5.5 5.75)"/><rect width="13" height="1.5" x="-1" y="13.15" rx=".75" transform="rotate(45 5.5 13.9)"/></g></g></svg><svg width="32" height="24" viewBox="-4 -4 32 24" id="icon_repeat_clip" x="241" y="293" xmlns="http://www.w3.org/2000/svg"><defs><clipPath id="cba"><path d="M1400 0v287H0V0h1400z"/></clipPath><clipPath id="cbb"><path d="M16.669 2.04C19.657 2.376 22 4.926 22 8a6 6 0 01-.064.832A3.988 3.988 0 0123.5 12a4 4 0 01-4 4 3.995 3.995 0 01-3.462-2.002L16 14H9.75v1.5a.501.501 0 01-.284.451.499.499 0 01-.192.044c-.016.001-.031.002-.047.001a.513.513 0 01-.104-.017.509.509 0 01-.185-.088l-2.5-2a.5.5 0 010-.78l2.5-2a.502.502 0 01.813.39V13h5.88a3.973 3.973 0 01-.13-1 4 4 0 015.484-3.713c.006-.096.015-.19.015-.288a5.006 5.006 0 00-4.36-4.955c.066-.17.11-.354.11-.545 0-.16-.034-.313-.081-.46zm3.439 7.857h-.88l-1.093.76v.796l1.078-.744h.018v3.416h.877V9.897zM13.062.11l2.501 2a.5.5 0 010 .781l-2.501 2a.5.5 0 01-.812-.39V3H6C3.243 3 1 5.242 1 8a5.005 5.005 0 004.361 4.954 1.473 1.473 0 00-.111.545c0 .16.033.313.081.46C2.343 13.624 0 11.074 0 8c0-3.3 2.7-6 6-6h6.25V.5a.5.5 0 01.812-.39z"/></clipPath><clipPath id="cbc"><path d="M1.972 0v4.228h-.876V.812h-.018L0 1.556V.759L1.093 0h.879z"/></clipPath></defs><g clip-path="url(#cba)" transform="translate(-1341 -208)"><g clip-path="url(#cbb)" transform="translate(1341 208)"><path fill="#02AB4F" d="M0 0h23.5v16H0V0z"/></g><g clip-path="url(#cbc)" transform="translate(1359.135 217.897)"><path fill="#FDFDFD" d="M0 0h1.972v4.228H0V0z"/></g></g></svg><svg width="32" height="24" viewBox="-4 -4 32 24" id="icon_repeat_playlist" x="273" y="293" xmlns="http://www.w3.org/2000/svg"><defs><clipPath id="cca"><path d="M1400 0v287H0V0h1400z"/></clipPath><clipPath id="ccb"><path d="M12.534.05a.497.497 0 01.528.06l2.501 2a.5.5 0 010 .781l-2.501 2a.5.5 0 01-.812-.39V3H6C3.243 3 1 5.242 1 8a5.005 5.005 0 004.361 4.954 1.473 1.473 0 00-.111.545c0 .16.033.313.081.46C2.343 13.624 0 11.074 0 8c0-3.3 2.7-6 6-6h6.25V.5a.5.5 0 01.284-.45z"/></clipPath><clipPath id="ccc"><path d="M10.419 0c2.988.336 5.331 2.886 5.331 5.96 0 3.3-2.7 6-6 6H3.5v1.5a.5.5 0 01-.811.391l-2.502-2a.504.504 0 010-.782l2.502-2a.495.495 0 01.527-.06.5.5 0 01.284.451v1.5h6.25c2.757 0 5-2.243 5-5a5.005 5.005 0 00-4.361-4.955c.068-.171.111-.354.111-.545 0-.16-.033-.313-.081-.46z"/></clipPath></defs><g clip-path="url(#cca)" transform="translate(-1312 -208)"><g clip-path="url(#ccb)" transform="translate(1312 208)"><path fill="#02AB4F" d="M0 0h15.75v13.96H0V0z"/></g><g clip-path="url(#ccc)" transform="translate(1318.25 210)"><path fill="#02AB4F" d="M0 0h15.75v13.96H0V0z"/></g></g></svg><svg width="23" height="24" viewBox="-4 -4 23 24" id="icon_subscribe_check" x="331" y="164" xmlns="http://www.w3.org/2000/svg"><defs><clipPath id="cda"><path d="M2266 0v3691H0V0h2266z"/></clipPath></defs><g clip-path="url(#cda)" transform="translate(-1595 -880)"><path d="M1608.235 885.336l-7.714 7.951-4.761-4.734" stroke="#02AB4F" stroke-width="2" fill="none" stroke-miterlimit="10"/></g></svg><svg width="20" height="20" viewBox="-4 -4 20 20" id="icon_subscribe_check_small" x="331" y="277" xmlns="http://www.w3.org/2000/svg"><defs><clipPath id="cea"><path d="M2266 0v3691H0V0h2266z"/></clipPath></defs><g clip-path="url(#cea)" transform="translate(-1583 -1226)"><path d="M1593.465 1229.532l-6.416 6.52-3.54-3.552" stroke="#02AB4F" stroke-width="1.4" fill="none" stroke-miterlimit="10"/></g></svg><svg viewBox="-4 -4 106 26" width="106" height="26" id="img_csoon" y="99" xmlns="http://www.w3.org/2000/svg"><path fill-rule="evenodd" clip-rule="evenodd" fill-opacity=".6" d="M2 0h94c1.1 0 2 .9 2 2v14c0 1.1-.9 2-2 2H2c-1.1 0-2-.9-2-2V2C0 .9.9 0 2 0z"/><g fill="#FFF"><path d="M13.8 7.2c-.1-.2-.2-.3-.4-.4-.2-.1-.3-.2-.5-.3-.2-.1-.4-.1-.6-.1-.4 0-.7.1-1 .2-.3.2-.5.4-.7.6-.2.3-.3.5-.4.9-.1.3-.1.7-.1 1 0 .3 0 .7.1 1 .1.3.2.6.4.8.2.2.4.4.7.6.3.2.6.2 1 .2.5 0 .9-.2 1.2-.5.3-.3.5-.7.5-1.3h1.7c0 .5-.2.9-.3 1.3-.2.4-.4.7-.7 1-.3.3-.7.5-1.1.6s-.8.2-1.3.2c-.6 0-1.1-.1-1.6-.3-.5-.2-.9-.5-1.2-.9-.3-.4-.6-.8-.8-1.3-.2-.5-.3-1-.3-1.6 0-.6.1-1.1.3-1.6.2-.3.4-.8.7-1.1s.7-.7 1.2-.9c.5-.2 1-.3 1.6-.3.4 0 .8.1 1.2.2.4.1.7.3 1 .5s.6.5.8.9c.2.4.3.8.4 1.2H14c0-.2-.1-.4-.2-.6zM16.8 7.5c.2-.5.5-1 .8-1.3s.7-.7 1.2-.9c.5-.2 1-.3 1.6-.3.6 0 1.2.1 1.6.3.5.2.9.5 1.2.9.4.3.7.8.8 1.3s.3 1 .3 1.6c0 .6-.1 1.1-.3 1.6-.2.5-.4.9-.8 1.3-.3.4-.7.7-1.2.9-.5.2-1 .3-1.6.3-.6 0-1.1-.1-1.6-.3-.5-.2-.9-.5-1.2-.9-.3-.4-.6-.8-.8-1.3-.2-.5-.3-1-.3-1.6.1-.6.2-1.1.3-1.6zm1.6 2.6c.1.3.2.6.4.8.2.2.4.4.7.6.3.2.6.2 1 .2s.7-.1 1-.2c.3-.2.5-.4.7-.6.2-.2.3-.5.4-.8.1-.3.1-.6.1-1 0-.3 0-.7-.1-1-.1-.3-.2-.6-.4-.9-.2-.3-.4-.5-.7-.6-.3-.2-.6-.2-1-.2s-.7.1-1 .2c-.3.2-.5.4-.7.6-.2.3-.3.5-.4.9-.1.3-.1.7-.1 1 0 .3 0 .7.1 1zM27.9 5.1l1.8 5.4 1.7-5.4h2.4V13h-1.6V7.4L30.4 13H29l-1.9-5.5V13h-1.6V5.1h2.4zM37.2 5.1V13h-1.7V5.1h1.7zM40.4 5.1l3.3 5.3V5.1h1.6V13h-1.7l-3.3-5.3V13h-1.6V5.1h1.7zM51.5 12.9c-.4.2-.8.2-1.1.2-.6 0-1.1-.1-1.6-.3-.5-.2-.9-.5-1.2-.9-.3-.4-.6-.8-.8-1.3-.2-.5-.3-1-.3-1.6 0-.6.1-1.1.3-1.6.2-.5.4-.9.8-1.3s.7-.7 1.2-.9c.5-.2 1-.3 1.6-.3.4 0 .8.1 1.2.2.4.1.7.3 1 .5.3.2.6.5.8.9.2.3.3.7.4 1.2H52c-.1-.4-.3-.8-.6-1s-.6-.3-1.1-.3c-.4 0-.7.1-1 .2-.3.2-.5.4-.7.6-.2.3-.3.5-.4.9-.1.3-.1.7-.1 1 0 .3 0 .7.1 1 .1.3.2.6.4.8.2.2.4.4.7.6.3.2.6.2 1 .2.6 0 1-.1 1.3-.4.3-.3.5-.7.5-1.3h-1.7V8.8h3.3V13h-1.1l-.2-.9c-.2.4-.5.7-.9.8zM59.6 11.1c.1.2.2.3.4.4.2.1.3.2.6.3.2.1.4.1.7.1h.5c.2 0 .3-.1.5-.1s.3-.2.4-.3c.1-.1.2-.3.2-.5s-.1-.4-.2-.5c-.1-.1-.3-.2-.5-.3-.2-.1-.5-.2-.7-.2-.3-.1-.6-.1-.8-.2l-.9-.3c-.3-.1-.5-.2-.7-.4-.2-.2-.4-.4-.5-.6-.5-.5-.6-.8-.6-1.2 0-.4.1-.8.3-1.1s.4-.5.7-.7c.3-.2.6-.3.9-.4.3-.1.7-.1 1.1-.1.4 0 .8 0 1.2.1.4.1.7.2 1 .4s.5.5.7.8c.1.3.2.7.2 1.2h-1.7c0-.2-.1-.4-.1-.6-.1-.2-.2-.3-.3-.4-.1-.1-.3-.2-.5-.2s-.4-.1-.6-.1h-.4c-.1 0-.3.1-.4.2l-.3.3c-.1.1-.1.2-.1.4s0 .3.1.4l.3.3c.1.1.4.2.7.2.3.1.7.2 1.2.3.1 0 .4.1.6.2.3.1.5.2.8.4.3.2.5.4.7.7.2.3.3.6.3 1.1 0 .4-.1.7-.2 1-.1.3-.3.6-.6.8s-.6.4-1 .5c-.4.1-.9.2-1.4.2-.4 0-.9-.1-1.3-.2s-.8-.3-1.1-.5c-.3-.2-.6-.5-.7-.9-.2-.4-.3-.8-.3-1.3h1.7c-.1.4 0 .6.1.8zM65.3 7.5c.2-.5.4-.9.8-1.3s.7-.7 1.2-.9c.5-.2 1-.3 1.6-.3.6 0 1.2.1 1.6.3.5.2.9.5 1.2.9s.6.8.8 1.3.3 1 .3 1.6c0 .6-.1 1.1-.3 1.6-.2.5-.4.9-.8 1.3-.3.4-.7.7-1.2.9-.5.2-1 .3-1.6.3-.6 0-1.1-.1-1.6-.3-.5-.2-.9-.5-1.2-.9-.3-.4-.6-.8-.8-1.3-.2-.5-.3-1-.3-1.6 0-.6.1-1.1.3-1.6zm1.6 2.6c.1.3.2.6.4.8.2.2.4.4.7.6s.6.2 1 .2.7-.1 1-.2.5-.4.7-.6c.2-.2.3-.5.4-.8s.1-.6.1-1c0-.3 0-.7-.1-1-.1-.3-.2-.6-.4-.9-.2-.3-.4-.5-.7-.6s-.6-.2-1-.2-.7.1-1 .2-.6.4-.7.6c-.2.3-.3.5-.4.9-.1.3-.1.7-.1 1 0 .3 0 .7.1 1zM73.9 7.5c.1-.5.4-1 .7-1.3s.7-.7 1.2-.9 1-.3 1.6-.3c.6 0 1.2.1 1.6.3.5.2.9.5 1.2.9s.6.8.8 1.3.3 1 .3 1.6c0 .6-.1 1.1-.3 1.6-.2.5-.4.9-.8 1.3-.3.4-.7.7-1.2.9-.5.2-1 .3-1.6.3-.6 0-1.1-.1-1.6-.3s-.8-.5-1.2-.9c-.3-.4-.6-.8-.8-1.3-.2-.5-.3-1-.3-1.6.1-.6.2-1.1.4-1.6zm1.5 2.6c.1.3.2.6.4.8.2.2.4.4.7.6s.6.2 1 .2.7-.1 1-.2c.3-.2.5-.4.7-.6.2-.2.3-.5.4-.8.1-.3.1-.6.1-1 0-.3 0-.7-.1-1-.1-.3-.2-.6-.4-.9-.2-.3-.4-.5-.7-.6-.3-.2-.6-.2-1-.2s-.7.1-1 .2-.5.4-.7.6c-.2.3-.3.5-.4.9-.1.3-.1.7-.1 1 0 .3.1.7.1 1zM84.2 5.1l3.3 5.3V5.1h1.6V13h-1.7l-3.3-5.3V13h-1.6V5.1h1.7z"/></g></svg><svg width="35" height="35" viewBox="-4 -4 35 35" id="img_gnb_channel_default" x="38" y="293" xmlns="http://www.w3.org/2000/svg"><defs><path id="cgd" d="M0 .018h10.936v7.996H0z"/><path id="cgf" d="M0 .157h10.936v7.996H0z"/><linearGradient id="cgc" x1="50.002%" x2="50.002%" y1="77.125%" y2="27.806%"><stop offset="0%" stop-color="#FFF"/><stop offset="100%" stop-color="#F7F7F7"/></linearGradient><circle id="cga" cx="13.5" cy="13.5" r="13.5"/></defs><g fill="none" fill-rule="evenodd"><mask id="cgb" fill="#fff"><use xlink:href="#cga"/></mask><use fill="#EDEDED" xlink:href="#cga"/><g mask="url(#cgb)" opacity=".9"><path fill="url(#cgc)" d="M0 11.17h3.368V1.88H0z" transform="translate(9 7)"/><g transform="translate(9 11.83)"><mask id="cge" fill="#fff"><use xlink:href="#cgd"/></mask><path fill="#FFF" d="M10.68.8A1.697 1.697 0 008.36.27L.791 4.94a1.65 1.65 0 00-.536 2.292 1.696 1.696 0 002.32.529l7.568-4.67A1.651 1.651 0 0010.68.8" mask="url(#cge)"/></g><g transform="translate(9 7.021)"><mask id="cgg" fill="#fff"><use xlink:href="#cgf"/></mask><path fill="#FFF" d="M10.68 7.37a1.697 1.697 0 01-2.32.53L.791 3.23A1.651 1.651 0 01.256.94a1.696 1.696 0 012.32-.53l7.568 4.67a1.651 1.651 0 01.536 2.292" mask="url(#cgg)"/></g></g><circle cx="13.5" cy="13.5" r="13" stroke="#000" stroke-opacity=".02"/></g></svg><svg viewBox="-4 -4 46 26" width="46" height="26" id="img_live" x="124" y="153" xmlns="http://www.w3.org/2000/svg"><path fill-rule="evenodd" clip-rule="evenodd" fill="#EA333C" d="M2 0h34c1.1 0 2 .9 2 2v14c0 1.1-.9 2-2 2H2c-1.1 0-2-.9-2-2V2C0 .9.9 0 2 0z"/><g fill="#FFF"><path d="M8.7 4.4v7h4.2V13H6.8V4.4h1.9zM15.8 4.4V13h-1.9V4.4h1.9zM19.3 13l-2.8-8.6h1.9l1.9 6 1.9-6h1.9L21.5 13h-2.2zM31.5 4.4V6H27v1.8h4.2v1.5H27v2.1h4.6V13H25V4.4h6.5z"/></g></svg><svg width="28" height="28" viewBox="-4 -4 28 28" id="img_lnb_feed_default" x="331" y="118" xmlns="http://www.w3.org/2000/svg"><defs><path id="cib" d="M0 .014h7.953v6.15H0z"/><path id="cid" d="M0 .12h7.953v6.151H0z"/><linearGradient id="cia" x1="50.002%" x2="50.002%" y1="77.125%" y2="27.806%"><stop offset="0%" stop-color="#FFF"/><stop offset="100%" stop-color="#F7F7F7"/></linearGradient></defs><g fill="none" fill-rule="evenodd"><circle cx="10" cy="10" r="9.5" fill="#EDEDED" stroke="#000" stroke-opacity=".03"/><g opacity=".9"><path fill="url(#cia)" d="M0 8.592h2.45V1.447H0z" transform="translate(6.667 5.185)"/><g transform="translate(6.667 8.9)"><mask id="cic" fill="#fff"><use xlink:href="#cib"/></mask><path fill="#FFF" d="M7.767.615A1.195 1.195 0 006.079.208L.576 3.8c-.574.375-.748 1.164-.39 1.763.359.599 1.114.781 1.688.407l5.503-3.592c.574-.375.748-1.164.39-1.763" mask="url(#cic)"/></g><g transform="translate(6.667 5.202)"><mask id="cie" fill="#fff"><use xlink:href="#cid"/></mask><path fill="#FFF" d="M7.767 5.67c-.358.6-1.114.781-1.688.407L.576 2.485C.002 2.11-.172 1.32.186.722.545.122 1.3-.059 1.874.315l5.503 3.592c.574.375.748 1.164.39 1.763" mask="url(#cie)"/></g></g></g></svg><svg width="131" height="31" viewBox="-4 -4 131 31" id="logo_navertv" xmlns="http://www.w3.org/2000/svg"><defs><linearGradient id="cja" x1="50%" x2="50%" y1="87.237%" y2="-1.735%"><stop offset="0%" stop-color="#00DE7B"/><stop offset="100%" stop-color="#00BA6E"/></linearGradient></defs><g fill="none" fill-rule="evenodd"><g fill-rule="nonzero"><path fill="url(#cja)" d="M1.809 4.388h5.228v14.278H1.809z"/><path fill="#00DE7B" d="M18.383 10.142a2.522 2.522 0 01-.81 3.51L5.795 20.85a2.624 2.624 0 01-3.58-.826 2.522 2.522 0 01.81-3.51l11.778-7.199a2.624 2.624 0 013.58.827z"/><path fill="#00DE7B" d="M2.199 2.954a2.629 2.629 0 013.585-.831l11.805 7.2a2.526 2.526 0 01.815 3.514 2.629 2.629 0 01-3.585.831l-11.805-7.2a2.526 2.526 0 01-.815-3.514z"/></g><path d="M35.165 6.129v6.19L29.43 5.421c-.422-.499-.944-.96-1.888-.96h-.335c-1.056 0-1.883.758-1.883 1.725v10.685c0 .94.835 1.706 1.861 1.706 1.027 0 1.863-.765 1.863-1.706v-6.46l5.965 7.169c.423.498.945.959 1.889.959h.105c1.056 0 1.883-.758 1.883-1.725V6.129c0-.94-.836-1.706-1.863-1.706-1.026 0-1.862.765-1.862 1.706zm13.752 6.259H45.99l1.463-3.52 1.464 3.52zm.57-6.657c-.373-.843-1.048-1.308-1.902-1.308h-.17c-.865 0-1.547.465-1.921 1.309L40.89 16.229c-.095.211-.191.462-.191.73 0 .907.695 1.618 1.583 1.618.694 0 1.278-.397 1.565-1.064l.861-2.042h5.49l.825 1.949c.328.757.888 1.157 1.62 1.157.91 0 1.622-.728 1.622-1.656 0-.21-.055-.43-.172-.69l-4.605-10.5zm29.3 9.67h-6.329V13.04h5.289c.94 0 1.705-.708 1.705-1.578 0-.881-.765-1.597-1.705-1.597h-5.289V7.598h6.225c.94 0 1.706-.707 1.706-1.577 0-.881-.766-1.598-1.706-1.598h-8.076c-1.05 0-1.872.77-1.872 1.754v10.646c0 .984.822 1.754 1.872 1.754h8.18c.94 0 1.706-.708 1.706-1.578 0-.881-.765-1.598-1.706-1.598m11.766-6.106v.039c0 1.042-.757 1.664-2.026 1.664H85.77V7.611h2.7c.95 0 2.084.292 2.084 1.684m3.506-.116V9.14c0-1.332-.425-2.464-1.23-3.271-.943-.946-2.364-1.446-4.109-1.446h-4.685c-.972 0-1.734.764-1.734 1.74v10.675c0 .975.762 1.739 1.734 1.739s1.734-.764 1.734-1.74V14.13h2.001l2.817 3.579c.456.585 1 .869 1.661.869.814 0 1.657-.607 1.657-1.623 0-.568-.254-.937-.539-1.3l-1.855-2.26c1.669-.806 2.548-2.256 2.548-4.215M63.475 5.607l-3.332 8.057-3.33-8.054c-.316-.788-.88-1.187-1.674-1.187-.997 0-1.779.744-1.779 1.695 0 .302.1.573.198.8l4.49 10.346c.37.847 1.114 1.313 2.095 1.313.981 0 1.725-.466 2.096-1.314l4.49-10.346c.097-.226.197-.497.197-.8 0-.95-.781-1.694-1.778-1.694-.795 0-1.358.4-1.673 1.184zm35.827 2.13h3.596v9.033c0 .946.78 1.713 1.742 1.713s1.742-.767 1.742-1.713V7.737h3.877l4.048 9.527c.362.847 1.09 1.313 2.052 1.313.96 0 1.689-.466 2.051-1.314l4.397-10.346c.095-.226.193-.497.193-.8 0-.95-.765-1.694-1.742-1.694-.778 0-1.33.4-1.637 1.184l-3.261 8.054-3.283-8.104a1.642 1.642 0 00-1.525-1.018h-12.25c-.898 0-1.626.716-1.626 1.6 0 .883.728 1.598 1.626 1.598" fill="#3C3C3C"/></g></svg></svg>